<svg width="53" height="70" viewBox="0 0 53 70" fill="none" xmlns="http://www.w3.org/2000/svg">
<path d="M0.683966 0.102018C7.12085 -0.432037 13.8557 1.15235 19.989 4.73421C26.2125 8.34207 31.5664 14.0084 35.1949 20.5789C38.5444 26.6547 41.0681 34.4068 39.348 40.7986C38.5112 43.8729 36.7146 46.3749 34.1415 47.844C31.6695 49.2437 28.6671 49.7406 25.6838 49.2564C19.4083 48.2188 13.8056 42.9347 10.8498 36.6763C9.35137 33.482 8.25494 29.8706 8.76636 26.5447C9.3106 22.9322 12.0506 20.8204 14.8561 19.4379C20.1501 16.8381 26.658 16.66 32.7257 18.8613C38.8836 21.0887 44.284 25.8606 47.9152 31.9188C51.4808 37.8989 53.1814 44.8615 52.3856 51.3221C51.6362 57.5396 48.6555 63.0553 44.305 66.6964C43.2713 67.5828 42.1064 68.3129 40.9142 68.9563C39.8231 69.5301 38.631 67.5686 39.7603 66.9861C44.3542 64.6385 47.8189 60.2687 49.4842 55.0057C51.2098 49.5429 50.8572 43.3435 48.5249 37.5015C46.2308 31.6508 42.039 26.4178 36.8874 23.2173C31.7358 20.0169 25.7283 18.9182 20.4043 19.9898C17.7491 20.5474 15.0912 21.6172 13.0486 23.3378C11.9903 24.2763 11.1289 25.4491 10.8254 26.9601C10.571 28.3669 10.6777 29.8777 11.0276 31.3796C12.4139 37.3438 16.6193 43.2714 21.9131 45.8813C26.9608 48.3612 33.045 47.4888 36.0092 43.0932C39.1977 38.3675 37.7349 31.1182 35.3944 25.5106C32.7694 19.1305 28.3617 13.342 23.0515 9.24725C17.7932 5.18722 11.6572 2.76886 5.5977 2.28675C4.17306 2.19221 2.72381 2.14979 1.32924 2.28099C0.80423 2.3074 0.235472 2.06467 0.030404 1.41358C-0.0953672 0.884014 0.172623 0.171826 0.683966 0.102018Z" fill="#C026D3"/>
</svg>
