<svg width="80" height="80" viewBox="0 0 80 80" fill="none" xmlns="http://www.w3.org/2000/svg">
<rect width="80" height="80" rx="40" fill="white"/>
<g clip-path="url(#clip0_1793_39380)">
<path d="M30.832 50.9992C28.5445 50.9992 26.3507 50.13 24.7332 48.5828C23.1157 47.0357 22.207 44.9373 22.207 42.7492C22.207 40.5612 23.1157 38.4628 24.7332 36.9156C26.3507 35.3684 28.5445 34.4992 30.832 34.4992C31.3723 32.0924 32.9528 29.9773 35.2258 28.6192C36.3513 27.9467 37.6129 27.4804 38.9386 27.2468C40.2644 27.0131 41.6282 27.0168 42.9524 27.2576C44.2766 27.4983 45.5351 27.9714 46.6561 28.6499C47.7771 29.3284 48.7386 30.199 49.4858 31.2119C50.2329 32.2249 50.7511 33.3603 51.0107 34.5535C51.2703 35.7466 51.2662 36.9741 50.9987 38.1659H52.832C54.5338 38.1659 56.1659 38.8419 57.3693 40.0453C58.5727 41.2486 59.2487 42.8807 59.2487 44.5826C59.2487 46.2844 58.5727 47.9165 57.3693 49.1198C56.1659 50.3232 54.5338 50.9992 52.832 50.9992" stroke="#FE3B76" stroke-width="2.75" stroke-linecap="round" stroke-linejoin="round"/>
<path d="M38.168 45.5V45.5183M38.168 51.0183V51.0367M38.168 56.5367V56.555M45.5013 49.2217V49.24M45.5013 54.74V54.7583" stroke="#FE3B76" stroke-width="2.75" stroke-linecap="round" stroke-linejoin="round"/>
</g>
<defs>
<clipPath id="clip0_1793_39380">
<rect width="44" height="44" fill="white" transform="translate(18 18)"/>
</clipPath>
</defs>
</svg>
