<svg width="61" height="87" viewBox="0 0 61 87" fill="none" xmlns="http://www.w3.org/2000/svg">
<path d="M1.52402 9.15953C7.9609 8.62548 14.6958 10.2099 20.8291 13.7917C27.0526 17.3996 32.4065 23.0659 36.0349 29.6364C39.3845 35.7122 41.9082 43.4643 40.1881 49.8561C39.3513 52.9305 37.5547 55.4324 34.9815 56.9015C32.5096 58.3012 29.5071 58.7982 26.5239 58.3139C20.2484 57.2763 14.6456 51.9922 11.6898 45.7338C10.1914 42.5395 9.095 38.9281 9.60641 35.6022C10.1507 31.9898 12.8906 29.8779 15.6962 28.4954C20.9901 25.8956 27.4981 25.7175 33.5658 27.9189C39.7237 30.1462 45.1241 34.9181 48.7553 40.9763C52.3208 46.9564 54.0215 53.919 53.2256 60.3796C52.4763 66.5971 49.4956 72.1128 45.145 75.7539C44.1114 76.6403 42.9465 77.3705 41.7542 78.0138C40.6632 78.5876 39.471 76.6261 40.6004 76.0436C45.1943 73.6961 48.6589 69.3262 50.3243 64.0632C52.0499 58.6004 51.6973 52.4011 49.3649 46.559C47.0709 40.7083 42.8791 35.4753 37.7275 32.2749C32.5759 29.0744 26.5683 27.9757 21.2443 29.0474C18.5892 29.6049 15.9313 30.6747 13.8886 32.3953C12.8304 33.3338 11.969 34.5066 11.6654 36.0176C11.4111 37.4244 11.5177 38.9352 11.8677 40.4371C13.2539 46.4013 17.4593 52.3289 22.7532 54.9388C27.8009 57.4187 33.885 56.5463 36.8493 52.1507C40.0377 47.425 38.575 40.1757 36.2344 34.5682C33.6095 28.188 29.2017 22.3995 23.8915 18.3048C18.6333 14.2447 12.4973 11.8264 6.43775 11.3443C5.01311 11.2497 3.56386 11.2073 2.1693 11.3385C1.64428 11.3649 1.07553 11.1222 0.870459 10.4711C0.744688 9.94153 1.01268 9.22934 1.52402 9.15953Z" fill="#C026D3"/>
<path d="M44.7023 80.733C43.6268 80.3243 42.5375 79.8722 41.525 79.4026C40.9543 79.1591 40.4082 78.8634 39.8622 78.5677C39.3299 78.3156 38.8222 78.0111 38.4517 77.4891C37.5789 76.2885 38.3218 74.861 38.6726 73.7557C39.0234 72.6503 39.44 71.6233 39.8951 70.5875C40.4625 69.3864 42.2873 70.6041 41.7199 71.8052C41.3251 72.6408 40.9825 73.5112 40.6783 74.3728C40.5193 74.7819 40.4124 75.2258 40.2535 75.6349C40.1932 75.835 40.1082 76.0874 40.0479 76.2876C40.0233 76.3398 40.0123 76.4356 39.9876 76.4878C39.9739 76.4443 39.9602 76.4008 39.9849 76.3485C39.9574 76.2615 39.9053 76.2267 39.8778 76.1397C39.9437 76.218 39.9958 76.2528 39.9437 76.218C40.6571 76.5224 41.5159 77.0268 42.2952 77.4095C43.2034 77.8095 44.1116 78.2095 45.0445 78.5572C46.3423 79.1486 45.9727 81.2373 44.7023 80.733Z" fill="#C026D3"/>
</svg>
