<svg width="992" height="960" viewBox="0 0 992 960" fill="none" xmlns="http://www.w3.org/2000/svg">
<path d="M139.5 168.131H540.814C563.028 168.131 581.028 186.132 581.028 208.345V665.797C581.028 688.011 563.028 706.012 540.814 706.012H222.263C200.049 706.012 182.049 688.011 182.049 665.797V9.21165C182.049 -13.0023 200.049 -31.0028 222.263 -31.0028H665.75C687.964 -31.0028 705.964 -13.0023 705.964 9.21165V154.878C705.964 177.092 687.964 195.092 665.75 195.092H417.164C394.95 195.092 376.949 213.093 376.949 235.307V377.907C376.949 400.121 394.95 418.121 417.164 418.121H952.731C974.944 418.121 992.945 436.122 992.945 458.336V830.176C992.945 852.39 974.944 870.391 952.731 870.391H707.428C685.214 870.391 667.214 852.39 667.214 830.176V-76.7757C667.214 -98.9896 649.213 -116.99 626.999 -116.99H344.568C322.354 -116.99 304.354 -98.9896 304.354 -76.7757V966.941C304.354 989.155 322.354 1007.16 344.568 1007.16H442.503C464.717 1007.16 482.718 989.155 482.718 966.941V-114.082C482.718 -136.296 464.717 -154.297 442.503 -154.297H135.089C112.875 -154.297 94.8744 -136.296 94.8744 -114.082V447.219C94.8744 469.433 112.875 487.434 135.089 487.434H1010.81C1033.02 487.434 1051.02 469.433 1051.02 447.219V286.48C1051.02 264.266 1033.02 246.265 1010.81 246.265H0.5" stroke="url(#paint0_linear_1793_39303)" stroke-opacity="0.25" stroke-miterlimit="10" stroke-linecap="round" stroke-dasharray="8 8"/>
<defs>
<linearGradient id="paint0_linear_1793_39303" x1="0.499883" y1="426.429" x2="1001.1" y2="223.816" gradientUnits="userSpaceOnUse">
<stop stop-color="#FE3B76"/>
<stop offset="0.5" stop-color="#AF29CE"/>
<stop offset="1" stop-color="#2931DD"/>
</linearGradient>
</defs>
</svg>
