<svg width="991" height="960" viewBox="0 0 991 960" fill="none" xmlns="http://www.w3.org/2000/svg">
<path d="M850.588 792.572H451.608C428.088 792.572 409.039 773.503 409.039 750.004V297.24C409.039 273.72 428.088 254.671 451.608 254.671H765.471C788.99 254.671 808.039 273.72 808.039 297.24V949.138C808.039 972.657 788.97 991.706 765.471 991.706H326.711C303.192 991.706 284.143 972.637 284.143 949.138V808.159C284.143 784.64 303.212 765.591 326.711 765.591H570.59C594.109 765.591 613.158 746.522 613.158 723.023V585.11C613.158 561.591 594.089 542.542 570.59 542.542H39.7111C16.1917 542.542 -2.85727 523.473 -2.85727 499.974V132.841C-2.85727 109.322 16.2115 90.2726 39.7111 90.2726H280.325C303.845 90.2726 322.894 109.322 322.894 132.841V1035.11C322.894 1058.62 341.963 1077.67 365.462 1077.67H643.185C666.705 1077.67 685.754 1058.6 685.754 1035.11V-3.92381C685.754 -27.4432 666.685 -46.4922 643.185 -46.4922H549.958C526.439 -46.4922 507.39 -27.4235 507.39 -3.92381V1072.43C507.39 1095.95 526.458 1115 549.958 1115H852.684C876.204 1115 895.253 1095.93 895.253 1072.43V515.818C895.253 492.299 876.184 473.25 852.684 473.25H-18.3457C-41.8651 473.25 -60.9141 492.318 -60.9141 515.818V671.869C-60.9141 695.389 -41.8453 714.438 -18.3457 714.438H989.588" stroke="url(#paint0_linear_1793_39304)" stroke-opacity="0.25" stroke-miterlimit="10" stroke-linecap="round" stroke-dasharray="8 8"/>
<defs>
<linearGradient id="paint0_linear_1793_39304" x1="-60.9142" y1="534.253" x2="939.67" y2="331.654" gradientUnits="userSpaceOnUse">
<stop stop-color="#FE3B76"/>
<stop offset="0.5" stop-color="#AF29CE"/>
<stop offset="1" stop-color="#2931DD"/>
</linearGradient>
</defs>
</svg>
