<svg width="92" height="20" viewBox="0 0 92 20" fill="none" xmlns="http://www.w3.org/2000/svg">
<path d="M17.8395 16.4605L14.1641 12.7852C15.0489 11.6072 15.5266 10.1733 15.525 8.7C15.525 4.93672 12.4633 1.875 8.7 1.875C4.93672 1.875 1.875 4.93672 1.875 8.7C1.875 12.4633 4.93672 15.525 8.7 15.525C10.1733 15.5266 11.6072 15.0489 12.7852 14.1641L16.4605 17.8395C16.6466 18.0058 16.8893 18.0945 17.1387 18.0876C17.3881 18.0806 17.6255 17.9784 17.8019 17.8019C17.9784 17.6255 18.0806 17.3881 18.0876 17.1387C18.0945 16.8893 18.0058 16.6466 17.8395 16.4605ZM3.825 8.7C3.825 7.73582 4.11091 6.79328 4.64659 5.9916C5.18226 5.18991 5.94363 4.56506 6.83442 4.19609C7.72521 3.82711 8.70541 3.73057 9.65107 3.91867C10.5967 4.10677 11.4654 4.57107 12.1471 5.25285C12.8289 5.93464 13.2932 6.80328 13.4813 7.74893C13.6694 8.69459 13.5729 9.67479 13.2039 10.5656C12.8349 11.4564 12.2101 12.2177 11.4084 12.7534C10.6067 13.2891 9.66418 13.575 8.7 13.575C7.40755 13.5734 6.16847 13.0593 5.25457 12.1454C4.34066 11.2315 3.82655 9.99245 3.825 8.7Z" fill="#E5E5E5"/>
<path d="M36.6041 3.94948H39.9288C39.735 3.80212 39.5392 3.65274 39.3454 3.50538C39.4423 3.8001 39.5392 4.09483 39.6361 4.39157C39.8703 5.10013 40.1024 5.80868 40.3366 6.51724C40.6172 7.36912 40.8998 8.22302 41.1804 9.07691C41.4246 9.81777 41.6689 10.5586 41.9111 11.2995C42.0303 11.6588 42.1433 12.0201 42.2664 12.3774C42.2685 12.3835 42.2705 12.3875 42.2725 12.3936C42.3714 12.6944 42.6964 12.9205 43.0174 12.8175C43.3161 12.7206 43.5463 12.3956 43.4413 12.0726C43.3444 11.7779 43.2475 11.4832 43.1506 11.1864C42.9164 10.4779 42.6843 9.76932 42.4501 9.06076C42.1695 8.20687 41.8889 7.35297 41.6063 6.49907C41.3621 5.75822 41.1178 5.01736 40.8756 4.27651C40.7565 3.91719 40.6454 3.55584 40.5203 3.19854C40.5183 3.19248 40.5162 3.18845 40.5142 3.18239C40.4294 2.92804 40.2054 2.73828 39.9308 2.73828H36.6061C36.2891 2.73828 35.9863 3.01686 36.0005 3.34388C36.0126 3.67293 36.2649 3.94948 36.6041 3.94948Z" fill="#E5E5E5"/>
<path d="M42.3355 11.9262C42.0085 12.5096 41.6794 13.091 41.3524 13.6744C41.306 13.7592 41.2575 13.8419 41.2111 13.9267C40.987 14.3244 41.2696 14.8371 41.7339 14.8371H50.9794C51.4054 14.8371 51.8333 14.8452 52.2613 14.8371H52.2795C52.5964 14.8371 52.8992 14.5585 52.8851 14.2315C52.8709 13.9025 52.6186 13.6259 52.2795 13.6259H43.0339C42.608 13.6259 42.178 13.6138 41.7521 13.6259H41.7339C41.9075 13.9287 42.0831 14.2335 42.2568 14.5363C42.5838 13.9529 42.9128 13.3716 43.2398 12.7882C43.2863 12.7034 43.3347 12.6206 43.3812 12.5358C43.5366 12.2593 43.4558 11.8616 43.1631 11.7082C42.8765 11.5588 42.501 11.6315 42.3355 11.9262Z" fill="#E5E5E5"/>
<path d="M50.4001 18.726C51.1593 18.726 51.7748 18.1105 51.7748 17.3513C51.7748 16.592 51.1593 15.9766 50.4001 15.9766C49.6409 15.9766 49.0254 16.592 49.0254 17.3513C49.0254 18.1105 49.6409 18.726 50.4001 18.726Z" fill="#E5E5E5"/>
<path d="M48.6221 17.353C48.6302 18.11 49.1045 18.7641 49.8091 19.0285C50.4752 19.2788 51.2948 19.0608 51.749 18.5117C52.2315 17.9263 52.3284 17.0926 51.9267 16.4345C51.531 15.7845 50.772 15.4676 50.0311 15.6129C49.2136 15.7724 48.6302 16.5334 48.6221 17.353C48.6201 17.565 48.8098 17.7668 49.0258 17.7567C49.2459 17.7467 49.4275 17.5791 49.4296 17.353C49.4296 17.3207 49.4316 17.2864 49.4336 17.2541C49.4336 17.24 49.4356 17.2258 49.4376 17.2117C49.4437 17.131 49.4356 17.2379 49.4336 17.2359C49.4195 17.2279 49.476 17.0542 49.482 17.0381C49.4881 17.022 49.5002 16.9533 49.5143 16.9493C49.5184 16.9473 49.478 17.024 49.5002 16.9836C49.5083 16.9674 49.5164 16.9513 49.5224 16.9351C49.5527 16.8746 49.589 16.8201 49.6254 16.7636C49.6637 16.705 49.5709 16.8261 49.6355 16.7514C49.6556 16.7292 49.6758 16.705 49.698 16.6828C49.7202 16.6606 49.7424 16.6384 49.7647 16.6182C49.7747 16.6101 49.7848 16.6 49.7949 16.592C49.8091 16.5799 49.8676 16.5516 49.8151 16.5738C49.7707 16.592 49.803 16.5839 49.8171 16.5738C49.8313 16.5637 49.8454 16.5536 49.8616 16.5435C49.8838 16.5294 49.906 16.5153 49.9302 16.5032C49.9605 16.485 49.9928 16.4709 50.0251 16.4547C50.0352 16.4486 50.0775 16.4285 50.0251 16.4527C49.9645 16.4809 50.0453 16.4466 50.0513 16.4446C50.1058 16.4244 50.1644 16.4083 50.2209 16.3962C50.239 16.3921 50.2572 16.3901 50.2754 16.3861C50.3198 16.376 50.237 16.3901 50.237 16.3901C50.2734 16.3901 50.3117 16.382 50.3481 16.382C50.4147 16.38 50.4793 16.382 50.5459 16.3881C50.6206 16.3941 50.4692 16.374 50.562 16.3921C50.5984 16.3982 50.6327 16.4083 50.669 16.4163C50.6993 16.4244 50.7296 16.4345 50.7599 16.4446C50.7679 16.4466 50.8083 16.4608 50.8103 16.4628C50.8123 16.4688 50.7356 16.4244 50.776 16.4486C50.8325 16.483 50.8951 16.5092 50.9516 16.5455C50.9658 16.5556 50.9799 16.5657 50.996 16.5758C51.0102 16.5859 51.0405 16.594 50.9981 16.5758C50.9577 16.5597 50.9839 16.5637 50.9981 16.5778C51.0122 16.59 51.0243 16.6 51.0384 16.6122C51.0889 16.6566 51.1313 16.705 51.1757 16.7535C51.2363 16.8201 51.1474 16.707 51.1858 16.7656C51.2019 16.7918 51.2201 16.816 51.2363 16.8423C51.2524 16.8685 51.2686 16.8968 51.2827 16.923L51.3009 16.9594C51.3392 17.032 51.3089 16.9533 51.2988 16.9493C51.3231 16.9574 51.3493 17.1027 51.3574 17.1289C51.3634 17.1552 51.3695 17.1834 51.3756 17.2097C51.3917 17.2864 51.3735 17.1855 51.3735 17.1834C51.3836 17.1935 51.3796 17.24 51.3796 17.2521C51.3836 17.3126 51.3836 17.3752 51.3796 17.4358C51.3776 17.4539 51.3756 17.4721 51.3756 17.4923C51.3735 17.5327 51.3513 17.5266 51.3796 17.4681C51.3655 17.4984 51.3655 17.5428 51.3574 17.5751C51.3433 17.6316 51.3211 17.6861 51.3049 17.7426C51.2888 17.7931 51.3412 17.674 51.315 17.7204C51.3089 17.7305 51.3029 17.7446 51.2988 17.7567C51.2827 17.789 51.2665 17.8193 51.2484 17.8496C51.2322 17.8758 51.2161 17.9021 51.1979 17.9283C51.1434 18.0111 51.2363 17.888 51.1898 17.9425C51.1454 17.9929 51.103 18.0414 51.0526 18.0858C51.0445 18.0939 50.996 18.1464 50.9819 18.1464C50.9819 18.1464 51.0647 18.0898 51.0001 18.1302C50.988 18.1383 50.9779 18.1443 50.9678 18.1524C50.9113 18.1887 50.8527 18.219 50.7942 18.2493C50.7316 18.2816 50.8668 18.2251 50.78 18.2554C50.7498 18.2655 50.7215 18.2755 50.6912 18.2856C50.6609 18.2937 50.6307 18.3018 50.5984 18.3099C50.5842 18.3119 50.5721 18.3159 50.558 18.3179C50.4692 18.3381 50.6226 18.3139 50.5701 18.3179C50.5035 18.324 50.4389 18.328 50.3723 18.326C50.34 18.326 50.3077 18.322 50.2734 18.32C50.2612 18.32 50.2128 18.3139 50.2713 18.32C50.338 18.326 50.2572 18.3159 50.2431 18.3139C50.1724 18.2998 50.1038 18.2776 50.0352 18.2533C50.023 18.2493 49.9827 18.2291 50.0331 18.2533C50.0917 18.2816 50.021 18.2473 50.0089 18.2412C49.9766 18.2251 49.9463 18.2089 49.9161 18.1908C49.8858 18.1726 49.8575 18.1524 49.8272 18.1322C49.7788 18.1019 49.8333 18.1484 49.8454 18.1484C49.8373 18.1484 49.8111 18.1201 49.805 18.1141C49.7525 18.0676 49.7021 18.0192 49.6556 17.9647C49.6556 17.9647 49.6213 17.9304 49.6213 17.9243C49.6213 17.9324 49.6698 17.9929 49.6375 17.9425C49.6173 17.9122 49.5971 17.8839 49.5789 17.8536C49.5587 17.8193 49.5406 17.783 49.5224 17.7487C49.48 17.6659 49.5426 17.8133 49.5103 17.7224C49.4861 17.6538 49.4659 17.5852 49.4518 17.5125C49.4497 17.5004 49.4497 17.4822 49.4437 17.4721C49.474 17.5387 49.4497 17.5286 49.4457 17.4822C49.4417 17.4398 49.4396 17.3974 49.4396 17.355C49.4376 17.1431 49.2559 16.9412 49.0359 16.9513C48.8098 16.9574 48.6201 17.1269 48.6221 17.353Z" fill="#E5E5E5"/>
<path d="M43.4411 18.726C44.2004 18.726 44.8158 18.1105 44.8158 17.3513C44.8158 16.592 44.2004 15.9766 43.4411 15.9766C42.6819 15.9766 42.0664 16.592 42.0664 17.3513C42.0664 18.1105 42.6819 18.726 43.4411 18.726Z" fill="#E5E5E5"/>
<path d="M41.6626 17.3501C41.6707 18.1071 42.1451 18.7612 42.8496 19.0256C43.5158 19.2759 44.3354 19.0579 44.7896 18.5088C45.272 17.9234 45.3689 17.0897 44.9672 16.4316C44.5715 15.7816 43.8125 15.4647 43.0717 15.61C42.2521 15.7695 41.6707 16.5305 41.6626 17.3501C41.6606 17.5621 41.8504 17.7639 42.0664 17.7538C42.2864 17.7437 42.4681 17.5762 42.4701 17.3501C42.4701 17.3178 42.4721 17.2835 42.4741 17.2512C42.4741 17.2371 42.4762 17.2229 42.4782 17.2088C42.4842 17.1281 42.4762 17.235 42.4741 17.233C42.46 17.2249 42.5165 17.0513 42.5226 17.0352C42.5286 17.019 42.5408 16.9504 42.5549 16.9464C42.5589 16.9444 42.5185 17.0211 42.5408 16.9807C42.5488 16.9645 42.5569 16.9484 42.563 16.9322C42.5932 16.8717 42.6296 16.8172 42.6659 16.7607C42.7043 16.7021 42.6114 16.8232 42.676 16.7485C42.6962 16.7263 42.7164 16.7021 42.7386 16.6799C42.7608 16.6577 42.783 16.6355 42.8052 16.6153C42.8153 16.6072 42.8254 16.5971 42.8355 16.5891C42.8496 16.577 42.9082 16.5487 42.8557 16.5709C42.8113 16.5891 42.8436 16.581 42.8577 16.5709C42.8718 16.5608 42.8859 16.5507 42.9021 16.5406C42.9243 16.5265 42.9465 16.5124 42.9707 16.5002C43.001 16.4821 43.0333 16.4679 43.0656 16.4518C43.0757 16.4457 43.1181 16.4256 43.0656 16.4498C43.005 16.478 43.0858 16.4437 43.0919 16.4417C43.1464 16.4215 43.2049 16.4054 43.2614 16.3933C43.2796 16.3892 43.2978 16.3872 43.3159 16.3832C43.3603 16.3731 43.2776 16.3872 43.2776 16.3872C43.3139 16.3872 43.3523 16.3791 43.3886 16.3791C43.4552 16.3771 43.5198 16.3791 43.5864 16.3852C43.6611 16.3912 43.5097 16.371 43.6026 16.3892C43.6389 16.3953 43.6732 16.4054 43.7096 16.4134C43.7398 16.4215 43.7701 16.4316 43.8004 16.4417C43.8085 16.4437 43.8489 16.4579 43.8509 16.4599C43.8529 16.4659 43.7762 16.4215 43.8166 16.4457C43.8731 16.4801 43.9357 16.5063 43.9922 16.5426C44.0063 16.5527 44.0204 16.5628 44.0366 16.5729C44.0507 16.583 44.081 16.5911 44.0386 16.5729C43.9982 16.5568 44.0245 16.5608 44.0386 16.5749C44.0527 16.587 44.0649 16.5971 44.079 16.6093C44.1294 16.6537 44.1718 16.7021 44.2163 16.7506C44.2768 16.8172 44.188 16.7041 44.2263 16.7627C44.2425 16.7889 44.2607 16.8131 44.2768 16.8394C44.293 16.8656 44.3091 16.8939 44.3232 16.9201L44.3414 16.9565C44.3798 17.0291 44.3495 16.9504 44.3394 16.9464C44.3636 16.9544 44.3899 17.0998 44.3979 17.126C44.404 17.1523 44.41 17.1805 44.4161 17.2068C44.4322 17.2835 44.4141 17.1826 44.4141 17.1805C44.4242 17.1906 44.4201 17.2371 44.4201 17.2492C44.4242 17.3097 44.4242 17.3723 44.4201 17.4329C44.4181 17.451 44.4161 17.4692 44.4161 17.4894C44.4141 17.5298 44.3919 17.5237 44.4201 17.4652C44.406 17.4955 44.406 17.5399 44.3979 17.5722C44.3838 17.6287 44.3616 17.6832 44.3454 17.7397C44.3293 17.7902 44.3818 17.6711 44.3555 17.7175C44.3495 17.7276 44.3434 17.7417 44.3394 17.7538C44.3232 17.7861 44.3071 17.8164 44.2889 17.8467C44.2728 17.8729 44.2566 17.8992 44.2385 17.9254C44.184 18.0082 44.2768 17.8851 44.2304 17.9396C44.186 17.99 44.1436 18.0385 44.0931 18.0829C44.085 18.091 44.0366 18.1434 44.0225 18.1434C44.0225 18.1434 44.1052 18.0869 44.0406 18.1273C44.0285 18.1354 44.0184 18.1414 44.0083 18.1495C43.9518 18.1858 43.8933 18.2161 43.8347 18.2464C43.7721 18.2787 43.9074 18.2222 43.8206 18.2525C43.7903 18.2625 43.762 18.2726 43.7318 18.2827C43.7015 18.2908 43.6712 18.2989 43.6389 18.307C43.6248 18.309 43.6127 18.313 43.5985 18.315C43.5097 18.3352 43.6631 18.311 43.6106 18.315C43.544 18.3211 43.4794 18.3251 43.4128 18.3231C43.3805 18.3231 43.3482 18.3191 43.3139 18.317C43.3018 18.317 43.2533 18.311 43.3119 18.317C43.3785 18.3231 43.2978 18.313 43.2836 18.311C43.213 18.2969 43.1443 18.2747 43.0757 18.2504C43.0636 18.2464 43.0232 18.2262 43.0737 18.2504C43.1322 18.2787 43.0616 18.2444 43.0495 18.2383C43.0172 18.2222 42.9869 18.206 42.9566 18.1879C42.9263 18.1697 42.8981 18.1495 42.8678 18.1293C42.8193 18.099 42.8738 18.1455 42.8859 18.1455C42.8779 18.1455 42.8516 18.1172 42.8456 18.1111C42.7931 18.0647 42.7426 18.0163 42.6962 17.9618C42.6962 17.9618 42.6619 17.9274 42.6619 17.9214C42.6619 17.9295 42.7103 17.99 42.678 17.9396C42.6578 17.9093 42.6376 17.881 42.6195 17.8507C42.5993 17.8164 42.5811 17.7801 42.563 17.7458C42.5206 17.663 42.5831 17.8104 42.5508 17.7195C42.5266 17.6509 42.5064 17.5823 42.4923 17.5096C42.4903 17.4975 42.4903 17.4793 42.4842 17.4692C42.5145 17.5358 42.4903 17.5257 42.4862 17.4793C42.4822 17.4369 42.4802 17.3945 42.4802 17.3521C42.4782 17.1402 42.2965 16.9383 42.0765 16.9484C41.8483 16.9544 41.6586 17.124 41.6626 17.3501ZM54.7255 5.90625L52.2748 12.2247H42.8577L40.7744 5.90625H54.7255Z" fill="#E5E5E5"/>
<path d="M54.334 5.79665C54.0575 6.50924 53.7829 7.22183 53.5064 7.93443C53.0663 9.07094 52.6262 10.2054 52.1882 11.3419C52.0872 11.6024 51.9863 11.8648 51.8854 12.1252C52.0146 12.0263 52.1458 11.9274 52.275 11.8284H44.0166C43.6371 11.8284 43.2535 11.8123 42.872 11.8284H42.8558C42.985 11.9274 43.1162 12.0263 43.2454 12.1252C43.0093 11.4086 42.7751 10.694 42.5389 9.97732C42.1655 8.84485 41.792 7.71237 41.4206 6.57788C41.3338 6.31747 41.249 6.05706 41.1622 5.79463C41.033 5.9642 40.9018 6.13579 40.7726 6.30536H54.1584C54.3401 6.30536 54.5217 6.30939 54.7014 6.30536H54.7256C54.9376 6.30536 55.1395 6.11964 55.1294 5.90162C55.1193 5.68361 54.9517 5.49789 54.7256 5.49789H41.3398C41.1581 5.49789 40.9765 5.49385 40.7968 5.49789H40.7726C40.5202 5.49789 40.3002 5.7583 40.383 6.00861C40.6191 6.72524 40.8533 7.43985 41.0895 8.15648C41.463 9.28896 41.8364 10.4214 42.2078 11.5559C42.2946 11.8163 42.3794 12.0767 42.4662 12.3392C42.5228 12.5087 42.6721 12.6359 42.8558 12.6359H51.1142C51.4937 12.6359 51.8773 12.65 52.2588 12.6359H52.275C52.4667 12.6359 52.6 12.5067 52.6646 12.3392C52.9411 11.6266 53.2157 10.914 53.4922 10.2014C53.9323 9.06488 54.3724 7.93039 54.8104 6.79388C54.9114 6.53347 55.0123 6.27104 55.1132 6.01063C55.1899 5.8128 55.0284 5.55845 54.8306 5.51404C54.5985 5.46155 54.4148 5.58469 54.334 5.79665Z" fill="#E5E5E5"/>
<circle cx="50.8328" cy="6.0389" r="5.1678" fill="white"/>
<path d="M49.4104 6.87109V6.67309C49.4104 6.49309 49.4424 6.32909 49.5064 6.18109C49.5704 6.03309 49.6564 5.89909 49.7644 5.77909C49.8724 5.65509 49.9924 5.53909 50.1244 5.43109C50.2604 5.31909 50.3964 5.21309 50.5324 5.11309C50.7004 4.98909 50.8584 4.86509 51.0064 4.74109C51.1544 4.61309 51.2744 4.47709 51.3664 4.33309C51.4584 4.18509 51.5044 4.02109 51.5044 3.84109C51.5044 3.75709 51.4844 3.67309 51.4444 3.58909C51.4044 3.50509 51.3384 3.43509 51.2464 3.37909C51.1584 3.32309 51.0384 3.29509 50.8864 3.29509C50.7344 3.29509 50.6084 3.32109 50.5084 3.37309C50.4084 3.42109 50.3324 3.49109 50.2804 3.58309C50.2324 3.67509 50.2084 3.78909 50.2084 3.92509V4.17109H49.4764C49.4724 4.15109 49.4684 4.12109 49.4644 4.08109C49.4604 4.04109 49.4584 3.99109 49.4584 3.93109C49.4584 3.63509 49.5244 3.39709 49.6564 3.21709C49.7924 3.03309 49.9704 2.89909 50.1904 2.81509C50.4144 2.72709 50.6564 2.68309 50.9164 2.68309C51.1884 2.68309 51.4104 2.72309 51.5824 2.80309C51.7584 2.88309 51.8944 2.98509 51.9904 3.10909C52.0904 3.23309 52.1584 3.36509 52.1944 3.50509C52.2344 3.64509 52.2544 3.77309 52.2544 3.88909C52.2544 4.08109 52.2204 4.25709 52.1524 4.41709C52.0884 4.57309 51.9984 4.72109 51.8824 4.86109C51.7664 4.99709 51.6284 5.12909 51.4684 5.25709C51.3124 5.38109 51.1444 5.50709 50.9644 5.63509C50.8724 5.69909 50.7824 5.76309 50.6944 5.82709C50.6064 5.89109 50.5284 5.95509 50.4604 6.01909C50.3964 6.08309 50.3464 6.14709 50.3104 6.21109H52.2784V6.87109H49.4104Z" fill="url(#paint0_linear_8440_4218)"/>
<g clip-path="url(#clip0_8440_4218)">
<path d="M86.7044 16.2418L86.3109 16.1194C86.3782 15.8335 86.4408 15.5206 86.4978 15.1908C86.7717 15.003 87.0456 14.8097 87.3148 14.6116C87.3289 14.7826 87.3382 14.9479 87.3466 15.1114C87.1372 15.5168 86.9232 15.8971 86.7044 16.2418ZM79.3634 3.40511C79.5196 3.2846 79.6757 3.1725 79.828 3.06507C79.8346 2.98566 79.8421 2.91093 79.8495 2.83806C80.0019 2.77921 80.1524 2.72129 80.301 2.66804C80.4796 2.90345 80.6852 3.19679 80.9087 3.53683C80.8376 3.61063 80.7666 3.6863 80.6946 3.76384C80.4534 3.84605 80.2085 3.93199 79.9645 4.01887C79.9926 3.7545 80.0234 3.50881 80.058 3.2874C79.9636 3.43874 79.8682 3.59942 79.771 3.76758L79.2709 3.78626C79.3008 3.65267 79.3317 3.52562 79.3634 3.40511ZM91.8963 9.8538C91.6579 10.1443 91.3775 10.4517 91.0634 10.7721C91.0578 10.9645 91.0512 11.1589 91.0437 11.3513C90.925 11.5176 90.8026 11.6848 90.6736 11.8548C90.5468 11.3329 90.4059 10.8146 90.251 10.3003C90.0661 10.008 89.8751 9.71958 89.678 9.43528C89.1706 9.31021 88.6621 9.19 88.1524 9.07469C87.9926 8.92148 87.828 8.76921 87.6616 8.61507L87.4223 8.75893C87.5485 9.06348 87.671 9.36802 87.7888 9.6735C87.9685 9.57585 88.1477 9.47714 88.3263 9.37737C88.5637 9.58102 88.7927 9.78187 89.0124 9.97805C88.3618 10.433 87.6439 10.9113 86.8876 11.3943C86.5145 10.5761 86.124 9.76598 85.7163 8.96445L85.4583 9.00556C85.88 9.95816 86.279 10.9206 86.6549 11.8922C87.0484 11.6932 87.4326 11.4952 87.8037 11.2999C87.6766 11.7399 87.5401 12.1781 87.3962 12.6068C87.0035 12.9749 86.5978 13.3374 86.1893 13.6914C86.209 14.1903 86.2193 14.6658 86.2174 15.1058C85.9902 15.2618 85.764 15.4131 85.5359 15.5598C85.0704 16.1838 84.6105 16.7247 84.1739 17.1414C83.8075 17.19 83.4429 17.2329 83.0811 17.275C82.7396 16.7235 82.4239 16.1565 82.1351 15.5757C82.2183 15.259 82.3071 14.9208 82.3969 14.563C82.1753 13.9409 81.9407 13.2617 81.7032 12.5545C80.9077 12.6031 80.1206 12.6451 79.3513 12.6797C78.9072 12.2618 78.4696 11.837 78.0388 11.4055C78.0949 10.7179 78.165 10.0154 78.2464 9.31664C78.6642 8.79537 79.0961 8.27409 79.5298 7.76216C80.3487 7.61082 81.1854 7.46415 82.0164 7.32496L82.1725 7.97141C82.5137 8.18908 82.8558 8.41142 83.1989 8.63375L83.5859 8.09286C84.1057 8.22738 84.6207 8.36377 85.1274 8.5011L85.5116 8.26849C85.564 8.07791 85.6126 7.89014 85.6621 7.70424C85.319 7.64071 84.9704 7.57532 84.6189 7.5118L84.2618 6.93447C84.1767 6.8943 84.0935 6.85319 84.0103 6.81116C83.9449 7.0475 83.8785 7.28852 83.8093 7.53235C83.6486 7.33617 83.4887 7.14279 83.3279 6.95128C83.3363 6.79247 83.3447 6.63553 83.3504 6.48045C83.1423 6.32456 82.9333 6.1701 82.7231 6.0171C82.5997 5.95952 82.476 5.90253 82.352 5.84614C82.3641 5.99468 82.3735 6.14601 82.3856 6.29922C82.6446 6.46364 82.9073 6.63086 83.1699 6.80181C83.0372 6.94755 82.9035 7.09702 82.768 7.24929L82.1996 6.53277C82.0641 6.3861 81.9313 6.2413 81.7977 6.09931C81.4844 6.24415 81.1722 6.39113 80.861 6.54024C80.6366 6.86347 80.4095 7.19604 80.1833 7.53515C79.8523 7.48844 79.5252 7.4436 79.2008 7.39969C79.1961 7.00891 79.1952 6.61809 79.198 6.22729C79.6065 6.2441 80.0197 6.26279 80.4385 6.28521C80.3132 6.08716 80.1898 5.89285 80.0683 5.70414C79.999 5.55335 79.9289 5.40294 79.858 5.25293C80.1694 5.15738 80.4817 5.06427 80.7946 4.97361C80.9722 4.77463 81.1461 4.58312 81.319 4.40002L81.7285 4.37386C81.7027 4.27434 81.6762 4.175 81.649 4.07586L81.9108 3.81148C81.9762 3.95348 82.0426 4.10201 82.1089 4.25616C82.4885 4.26363 82.868 4.27484 83.2466 4.28698C83.3438 4.07212 83.4345 3.86847 83.5224 3.67789L83.9542 3.79093C83.8967 3.66175 83.8371 3.53344 83.7757 3.40605C83.9851 3.36307 84.1889 3.32197 84.3927 3.28273C84.3198 3.22879 84.2463 3.17585 84.172 3.12392C83.9874 3.1537 83.8029 3.18484 83.6186 3.21734C83.5432 3.11324 83.4659 3.01046 83.3868 2.90906L83.3569 2.90812C83.3606 2.90077 83.3646 2.89359 83.3691 2.88664C83.3385 2.84705 83.3067 2.80842 83.2737 2.7708C83.3438 2.74184 83.4139 2.71288 83.4822 2.68672C83.5373 2.5933 83.5822 2.52417 83.6317 2.4485L83.4261 2.43075C83.3245 2.49329 83.2248 2.55871 83.1269 2.62693C83.0447 2.73343 82.9587 2.85394 82.8689 2.98286C82.9811 3.05666 83.0942 3.13139 83.2083 3.20987C83.1139 3.40044 83.0166 3.61157 82.9119 3.83764L82.3997 3.98524C82.3086 3.76575 82.2132 3.54804 82.1136 3.33224C81.9201 3.40791 81.7219 3.48545 81.5228 3.56766L81.2489 3.44902C81.2695 3.25004 81.2919 3.066 81.3144 2.90252C81.4808 2.82592 81.6434 2.75585 81.8023 2.68952C81.9388 2.51483 82.0697 2.37097 82.1912 2.2598C82.4997 2.19721 82.796 2.14583 83.0783 2.10379C83.7953 2.13649 84.5441 2.1888 85.3022 2.25233C86.3529 2.21683 87.6271 2.17105 88.1889 2.14396C86.4289 0.754301 84.2511 -0.00111132 82.008 1.22713e-06C79.6261 1.22713e-06 77.4415 0.835164 75.7233 2.22337L76.0683 2.27381C76.1365 2.44477 76.2141 2.62974 76.3057 2.83713C76.3356 2.94269 76.3684 3.05573 76.4039 3.1725C76.2175 3.35051 76.0394 3.53692 75.8701 3.73114C75.833 3.83054 75.7975 3.93051 75.7635 4.03102C75.6308 4.10575 75.5018 4.18235 75.3728 4.25896C75.2887 4.53828 75.2111 4.83348 75.1391 5.1399C74.9843 5.118 74.8294 5.09652 74.6745 5.07544C74.5825 4.53586 74.5108 3.99303 74.4595 3.44808C73.9949 3.9815 73.5808 4.5607 73.2358 5.18567C73.2873 5.1427 73.3349 5.10066 73.3873 5.05862C73.521 5.73404 73.6817 6.47485 73.9005 7.28105C73.4611 7.56411 73.0666 7.8453 72.7264 8.11621C72.4983 8.32654 72.2829 8.5502 72.0814 8.78603C72.0337 9.18399 72.001 9.58849 72.001 9.99953C72.001 10.8524 72.1197 11.6764 72.3197 12.4677C72.4974 12.5321 72.6909 12.5956 72.9059 12.6582C73.233 13.0319 73.606 13.4112 74.0164 13.7858C74.1061 14.0539 74.2015 14.3173 74.3015 14.5761C74.8343 14.9077 75.4167 15.2291 76.0234 15.5309C75.863 16.0221 75.7196 16.5188 75.5934 17.0199L74.9017 17.0368C75.8303 17.9773 76.937 18.7238 78.1572 19.2327C79.3774 19.7416 80.6867 20.0028 82.0089 20.0009C87.442 20.0009 91.8542 15.67 92.001 10.2751C91.9645 10.1341 91.9355 9.99673 91.8963 9.8538Z" fill="#E5E5E5"/>
</g>
<defs>
<linearGradient id="paint0_linear_8440_4218" x1="48.249" y1="5.39292" x2="53.2906" y2="4.74796" gradientUnits="userSpaceOnUse">
<stop stop-color="#FE3B76"/>
<stop offset="0.5" stop-color="#AF29CE"/>
<stop offset="1" stop-color="#2931DD"/>
<stop offset="1" stop-color="#2931DD"/>
</linearGradient>
<clipPath id="clip0_8440_4218">
<rect width="20" height="20" fill="white" transform="translate(72.001)"/>
</clipPath>
</defs>
</svg>
