<svg width="24" height="24" viewBox="0 0 24 24" fill="none" xmlns="http://www.w3.org/2000/svg">
<g clip-path="url(#clip0_1793_39308)">
<path d="M20 11.0007C19.7554 9.2409 18.9391 7.61034 17.6766 6.36018C16.4142 5.11001 14.7758 4.3096 13.0137 4.08224C11.2516 3.85487 9.46362 4.21316 7.9252 5.10193C6.38678 5.99069 5.18325 7.36062 4.5 9.00068M4 5.00068V9.00068H8" stroke="#262626" stroke-width="1.5" stroke-linecap="round" stroke-linejoin="round"/>
<path d="M4 13C4.24456 14.7598 5.06093 16.3903 6.32336 17.6405C7.58579 18.8907 9.22424 19.6911 10.9863 19.9184C12.7484 20.1458 14.5364 19.7875 16.0748 18.8988C17.6132 18.01 18.8168 16.6401 19.5 15M20 19V15H16" stroke="#262626" stroke-width="1.5" stroke-linecap="round" stroke-linejoin="round"/>
</g>
<defs>
<clipPath id="clip0_1793_39308">
<rect width="24" height="24" fill="white"/>
</clipPath>
</defs>
</svg>
