<svg width="1148" height="43" viewBox="0 0 1148 43" fill="none" xmlns="http://www.w3.org/2000/svg">
<rect width="1147.8" height="42.4621" rx="2.65388" fill="black" fill-opacity="0.7"/>
<rect x="13.933" y="13.933" width="969.993" height="14.5963" stroke="#666666" stroke-width="1.32694"/>
<rect x="15.9219" y="15.9219" width="120.751" height="10.6155" fill="#666666"/>
<rect x="15.9219" y="15.9219" width="29.1927" height="10.6155" fill="#00ADEF"/>
<rect x="1005.81" y="21.2305" width="3.98082" height="7.96164" fill="#00ADEF"/>
<rect x="1012.45" y="18.5781" width="3.98082" height="10.6155" fill="#00ADEF"/>
<rect x="1019.08" y="15.9219" width="3.98082" height="13.2694" fill="#00ADEF"/>
<rect x="1025.72" y="13.2695" width="3.98082" height="15.9233" fill="#00ADEF"/>
<path d="M1134.66 29.9605L1134.53 24.6468L1133.2 25.9753L1130.55 23.3184L1128.02 25.8424L1130.68 28.4992L1129.35 29.8277" fill="white"/>
<path d="M1118.73 29.9605L1124.04 29.8277L1122.72 28.4992L1125.37 25.8424L1122.85 23.3184L1120.19 25.9753L1118.87 24.6468" fill="white"/>
<path d="M1118.73 14.0195L1118.87 19.3332L1120.19 18.0048L1122.85 20.6616L1125.37 18.1376L1122.72 15.4808L1124.04 14.1524" fill="white"/>
<path d="M1134.66 14.0195L1129.35 14.1524L1130.68 15.4808L1128.02 18.1376L1130.55 20.6616L1133.2 18.0048L1134.53 19.3332" fill="white"/>
<path d="M1096.44 11.3633H1094.45C1093.71 11.3633 1093.12 11.958 1093.12 12.6917V13.6349C1093.11 14.0689 1092.84 14.4528 1092.43 14.6046C1091.76 14.8808 1091.13 15.2472 1090.56 15.6939C1090.22 15.9666 1089.76 16.0087 1089.38 15.8002L1088.55 15.3485C1088.25 15.1711 1087.88 15.1232 1087.54 15.2155C1087.2 15.3078 1086.91 15.5326 1086.74 15.84L1085.74 17.567C1085.41 18.1927 1085.62 18.9705 1086.23 19.3338L1087.06 19.812C1087.42 20.0379 1087.62 20.4629 1087.55 20.888C1087.45 21.6064 1087.45 22.3349 1087.55 23.0533C1087.62 23.4785 1087.42 23.9034 1087.06 24.1293L1086.23 24.6474C1085.93 24.8227 1085.7 25.1134 1085.61 25.4551C1085.52 25.7967 1085.56 26.1611 1085.74 26.4673L1086.74 28.1943C1087.12 28.8156 1087.93 29.0114 1088.55 28.6327L1089.38 28.1544C1089.76 27.9459 1090.22 27.988 1090.56 28.2607C1091.13 28.7074 1091.76 29.0739 1092.43 29.35C1092.84 29.5018 1093.11 29.8857 1093.12 30.3197V31.2895C1093.12 32.0231 1093.71 32.6179 1094.45 32.6179H1096.44C1097.17 32.6179 1097.76 32.0231 1097.76 31.2895V30.3463C1097.78 29.9123 1098.05 29.5284 1098.45 29.3766C1099.13 29.1004 1099.75 28.7339 1100.33 28.2873C1100.66 28.0145 1101.13 27.9725 1101.51 28.181L1102.33 28.6592C1102.64 28.8366 1103 28.8845 1103.34 28.7922C1103.68 28.7 1103.97 28.4752 1104.15 28.1677L1105.14 26.4408C1105.49 25.8088 1105.28 25.0118 1104.65 24.6474L1103.83 24.1692C1103.46 23.9433 1103.27 23.5183 1103.34 23.0932C1103.44 22.3748 1103.44 21.6463 1103.34 20.9279C1103.27 20.5027 1103.46 20.0778 1103.83 19.8518L1104.65 19.3736C1104.96 19.1983 1105.18 18.9076 1105.28 18.5659C1105.37 18.2243 1105.32 17.8599 1105.14 17.5537L1104.15 15.8267C1103.97 15.5216 1103.68 15.2996 1103.34 15.2099C1103 15.1201 1102.63 15.17 1102.33 15.3485L1101.51 15.8267C1101.13 16.0352 1100.66 15.9932 1100.33 15.7205C1099.75 15.2738 1099.13 14.9073 1098.45 14.6312C1098.05 14.4794 1097.78 14.0954 1097.76 13.6614V12.6917C1097.76 12.3394 1097.62 12.0015 1097.38 11.7524C1097.13 11.5032 1096.79 11.3633 1096.44 11.3633ZM1098.76 21.9906C1098.76 23.8247 1097.27 25.3116 1095.44 25.3116C1093.61 25.3116 1092.12 23.8247 1092.12 21.9906C1092.12 20.1564 1093.61 18.6696 1095.44 18.6696C1097.27 18.6696 1098.76 20.1564 1098.76 21.9906Z" fill="white"/>
<path fill-rule="evenodd" clip-rule="evenodd" d="M1066.99 12.6914H1048.41C1046.21 12.6914 1044.43 14.4755 1044.43 16.6766V27.304C1044.43 29.5038 1046.21 31.2892 1048.41 31.2892H1066.99C1069.19 31.2892 1070.97 29.5038 1070.97 27.304V16.6766C1070.97 14.4755 1069.19 12.6914 1066.99 12.6914ZM1057.34 23.6933C1057.14 24.9195 1056.65 25.933 1055.87 26.7062C1055.08 27.4913 1054.05 27.8885 1052.83 27.8885C1051.32 27.8885 1050.11 27.3544 1049.24 26.301C1048.38 25.2569 1047.94 23.8222 1047.94 22.0302C1047.94 20.0933 1048.43 18.5723 1049.41 17.5096C1050.27 16.569 1051.38 16.0921 1052.71 16.0921C1054.47 16.0921 1055.79 16.7324 1056.62 17.9984C1057.07 18.7025 1057.32 19.4225 1057.35 20.1385L1057.37 20.452H1054.74L1054.68 20.2275C1054.56 19.7559 1054.4 19.4012 1054.22 19.1741C1053.91 18.7782 1053.44 18.5856 1052.8 18.5856C1052.15 18.5856 1051.66 18.8632 1051.28 19.4371C1050.89 20.0415 1050.69 20.9249 1050.69 22.0634C1050.69 23.1938 1050.89 24.0427 1051.31 24.5847C1051.7 25.1094 1052.19 25.3658 1052.79 25.3658C1053.42 25.3658 1053.87 25.1533 1054.2 24.7135C1054.38 24.4704 1054.54 24.0865 1054.66 23.5764L1054.72 23.3506H1057.39L1057.34 23.6933ZM1067.4 23.6933C1067.21 24.9195 1066.71 25.933 1065.93 26.7062C1065.14 27.4913 1064.12 27.8885 1062.89 27.8885C1061.38 27.8885 1060.17 27.3544 1059.3 26.301C1058.44 25.2582 1058 23.8235 1058 22.0315C1058 20.0947 1058.5 18.5736 1059.47 17.5109C1060.33 16.5704 1061.44 16.0935 1062.77 16.0935C1064.54 16.0935 1065.85 16.7338 1066.68 17.9997C1067.13 18.7038 1067.38 19.4238 1067.41 20.1398L1067.43 20.4533H1064.8L1064.74 20.2288C1064.62 19.7572 1064.47 19.4012 1064.29 19.1754C1063.97 18.7795 1063.5 18.5869 1062.86 18.5869C1062.22 18.5869 1061.72 18.8645 1061.35 19.4384C1060.95 20.0428 1060.75 20.9262 1060.75 22.0647C1060.75 23.1952 1060.96 24.044 1061.37 24.586C1061.77 25.1107 1062.25 25.3671 1062.86 25.3671C1063.48 25.3671 1063.94 25.1546 1064.26 24.7149C1064.44 24.4718 1064.6 24.0879 1064.73 23.5778L1064.78 23.3519H1067.45L1067.4 23.6933Z" fill="white"/>
</svg>
